<svg xmlns="http://www.w3.org/2000/svg" xmlns:xlink="http://www.w3.org/1999/xlink" width="1080" zoomAndPan="magnify" viewBox="0 0 810 809.999993" height="1080" preserveAspectRatio="xMidYMid meet" version="1.0"><defs><clipPath id="571d3a367f"><path d="M 109 280 L 509 280 L 509 563 L 109 563 Z M 109 280 " clip-rule="nonzero"/></clipPath><clipPath id="4086274081"><path d="M 308.226562 680.140625 L 108.984375 480.898438 L 309.003906 280.878906 L 508.246094 480.121094 Z M 308.226562 680.140625 " clip-rule="nonzero"/></clipPath><clipPath id="6134db216e"><path d="M 508.246094 480.121094 C 455.773438 532.59375 383.214844 562.648438 309.003906 562.648438 C 234.796875 562.648438 162.234375 532.59375 109.761719 480.121094 L 309.003906 280.878906 Z M 508.246094 480.121094 " clip-rule="nonzero"/></clipPath><clipPath id="6e9ff7dd13"><path d="M 0.679688 0.800781 L 399.320312 0.800781 L 399.320312 282.800781 L 0.679688 282.800781 Z M 0.679688 0.800781 " clip-rule="nonzero"/></clipPath><clipPath id="94d217435b"><path d="M 199.226562 400.140625 L -0.015625 200.898438 L 200.003906 0.878906 L 399.246094 200.121094 Z M 199.226562 400.140625 " clip-rule="nonzero"/></clipPath><clipPath id="22cff5523c"><path d="M 399.246094 200.121094 C 346.773438 252.59375 274.214844 282.648438 200.003906 282.648438 C 125.796875 282.648438 53.234375 252.59375 0.761719 200.121094 L 200.003906 0.878906 Z M 399.246094 200.121094 " clip-rule="nonzero"/></clipPath><clipPath id="09e7aa4523"><rect x="0" width="400" y="0" height="283"/></clipPath><clipPath id="f0b97250a2"><path d="M 315 215 L 606 215 L 606 422 L 315 422 Z M 315 215 " clip-rule="nonzero"/></clipPath><clipPath id="a056d987a3"><path d="M 461.171875 130.0625 L 606.410156 275.300781 L 460.605469 421.105469 L 315.367188 275.867188 Z M 461.171875 130.0625 " clip-rule="nonzero"/></clipPath><clipPath id="9f9718d01b"><path d="M 315.367188 275.867188 C 353.617188 237.617188 406.511719 215.707031 460.605469 215.707031 C 514.699219 215.707031 567.59375 237.617188 605.84375 275.867188 L 460.605469 421.105469 Z M 315.367188 275.867188 " clip-rule="nonzero"/></clipPath><clipPath id="be81b708f4"><path d="M 0.359375 0.519531 L 291 0.519531 L 291 206.199219 L 0.359375 206.199219 Z M 0.359375 0.519531 " clip-rule="nonzero"/></clipPath><clipPath id="f0c8e9c821"><path d="M 146.171875 -84.9375 L 291.410156 60.300781 L 145.605469 206.105469 L 0.367188 60.867188 Z M 146.171875 -84.9375 " clip-rule="nonzero"/></clipPath><clipPath id="f92e7fac21"><path d="M 0.367188 60.867188 C 38.617188 22.617188 91.511719 0.707031 145.605469 0.707031 C 199.699219 0.707031 252.59375 22.617188 290.84375 60.867188 L 145.605469 206.105469 Z M 0.367188 60.867188 " clip-rule="nonzero"/></clipPath><clipPath id="9d538d0ae9"><rect x="0" width="291" y="0" height="207"/></clipPath><clipPath id="0e1ff40348"><path d="M 467 282 L 673 282 L 673 574 L 467 574 Z M 467 282 " clip-rule="nonzero"/></clipPath><clipPath id="3705fb8d1a"><path d="M 758.328125 428.667969 L 613.089844 573.90625 L 467.28125 428.101562 L 612.523438 282.863281 Z M 758.328125 428.667969 " clip-rule="nonzero"/></clipPath><clipPath id="51483c88f5"><path d="M 612.523438 282.863281 C 650.773438 321.113281 672.679688 374.007812 672.679688 428.101562 C 672.679688 482.195312 650.773438 535.089844 612.523438 573.339844 L 467.28125 428.101562 Z M 612.523438 282.863281 " clip-rule="nonzero"/></clipPath><clipPath id="e9ff776fb1"><path d="M 0.28125 0.71875 L 205.71875 0.71875 L 205.71875 291.359375 L 0.28125 291.359375 Z M 0.28125 0.71875 " clip-rule="nonzero"/></clipPath><clipPath id="49b32ca80a"><path d="M 291.328125 146.667969 L 146.089844 291.90625 L 0.28125 146.101562 L 145.523438 0.863281 Z M 291.328125 146.667969 " clip-rule="nonzero"/></clipPath><clipPath id="3a7f737a23"><path d="M 145.523438 0.863281 C 183.773438 39.113281 205.679688 92.007812 205.679688 146.101562 C 205.679688 200.195312 183.773438 253.089844 145.523438 291.339844 L 0.28125 146.101562 Z M 145.523438 0.863281 " clip-rule="nonzero"/></clipPath><clipPath id="f693967ac3"><rect x="0" width="206" y="0" height="292"/></clipPath></defs><g clip-path="url(#571d3a367f)"><g clip-path="url(#4086274081)"><g clip-path="url(#6134db216e)"><g transform="matrix(1, 0, 0, 1, 109, 280)"><g clip-path="url(#09e7aa4523)"><g clip-path="url(#6e9ff7dd13)"><g clip-path="url(#94d217435b)"><g clip-path="url(#22cff5523c)"><path fill="#e07a5f" d="M 200.003906 399.363281 L 0.761719 200.121094 L 200.003906 0.878906 L 399.246094 200.121094 Z M 200.003906 399.363281 " fill-opacity="1" fill-rule="nonzero"/></g></g></g></g></g></g></g></g><g clip-path="url(#f0b97250a2)"><g clip-path="url(#a056d987a3)"><g clip-path="url(#9f9718d01b)"><g transform="matrix(1, 0, 0, 1, 315, 215)"><g clip-path="url(#9d538d0ae9)"><g clip-path="url(#be81b708f4)"><g clip-path="url(#f0c8e9c821)"><g clip-path="url(#f92e7fac21)"><path fill="#f4f1de" d="M 145.605469 -84.371094 L 290.84375 60.867188 L 145.605469 206.105469 L 0.367188 60.867188 Z M 145.605469 -84.371094 " fill-opacity="1" fill-rule="nonzero"/></g></g></g></g></g></g></g></g><g clip-path="url(#0e1ff40348)"><g clip-path="url(#3705fb8d1a)"><g clip-path="url(#51483c88f5)"><g transform="matrix(1, 0, 0, 1, 467, 282)"><g clip-path="url(#f693967ac3)"><g clip-path="url(#e9ff776fb1)"><g clip-path="url(#49b32ca80a)"><g clip-path="url(#3a7f737a23)"><path fill="#81b29a" d="M 290.761719 146.101562 L 145.523438 291.339844 L 0.28125 146.101562 L 145.523438 0.863281 Z M 290.761719 146.101562 " fill-opacity="1" fill-rule="nonzero"/></g></g></g></g></g></g></g></g></svg>